<?xml version="1.0" encoding="utf-8"?>
<!-- Svg Vector Icons : http://www.onlinewebfonts.com/icon -->
<!DOCTYPE svg PUBLIC "-//W3C//DTD SVG 1.1//EN" "http://www.w3.org/Graphics/SVG/1.1/DTD/svg11.dtd">
<svg version="1.1" xmlns="http://www.w3.org/2000/svg" xmlns:xlink="http://www.w3.org/1999/xlink" x="0px" y="0px" viewBox="0 0 1000 1000" enable-background="new 0 0 1000 1000" xml:space="preserve">
<metadata> Svg Vector Icons : http://www.onlinewebfonts.com/icon </metadata>
<g><path d="M500,10C229.4,10,10,229.4,10,500s219.4,490,490,490s490-219.4,490-490S770.6,10,500,10z M500,898.1c-219.9,0-398.1-178.2-398.1-398.1c0-219.9,178.2-398.1,398.1-398.1c219.9,0,398.1,178.2,398.1,398.1C898.1,719.9,719.9,898.1,500,898.1z"/><path d="M653.1,255L500,408.1L346.9,255L255,346.9L408.1,500L255,653.1l91.9,91.9L500,591.9L653.1,745l91.9-91.9L591.9,500L745,346.9L653.1,255z"/></g>
</svg>